<mxfile host="app.diagrams.net" modified="2021-01-27T01:19:10.556Z" agent="5.0 (Macintosh; Intel Mac OS X 10_15_6) AppleWebKit/605.1.15 (KHTML, like Gecko) Version/14.0.1 Safari/605.1.15" etag="Z2jVLdfJpzKXPmPaGnoH" version="14.2.7" type="github">
  <diagram id="ufiy2z4Yno87PljmZIg-" name="Page-1">
    <mxGraphModel dx="946" dy="577" grid="1" gridSize="10" guides="1" tooltips="1" connect="1" arrows="1" fold="1" page="1" pageScale="1" pageWidth="827" pageHeight="1169" math="0" shadow="0">
      <root>
        <mxCell id="0" />
        <mxCell id="1" parent="0" />
        <mxCell id="-AE7kKXB-Rd1YN3dLF4q-1" value="" style="verticalLabelPosition=bottom;verticalAlign=top;html=1;shape=mxgraph.flowchart.collate;gradientDirection=west;gradientColor=#000000;strokeColor=none;" vertex="1" parent="1">
          <mxGeometry x="530" y="275" width="36" height="70" as="geometry" />
        </mxCell>
        <mxCell id="-AE7kKXB-Rd1YN3dLF4q-2" value="1&lt;br style=&quot;font-size: 21px;&quot;&gt;—&lt;br style=&quot;font-size: 21px;&quot;&gt;2" style="text;html=1;align=center;verticalAlign=middle;resizable=0;points=[];autosize=1;strokeWidth=4;fontSize=21;fontStyle=1" vertex="1" parent="1">
          <mxGeometry x="490" y="270" width="40" height="80" as="geometry" />
        </mxCell>
        <mxCell id="-AE7kKXB-Rd1YN3dLF4q-5" value="光锥" style="text;html=1;align=center;verticalAlign=middle;resizable=0;points=[];autosize=1;fontSize=21;fontFamily=Verdana;" vertex="1" parent="1">
          <mxGeometry x="558" y="295" width="60" height="30" as="geometry" />
        </mxCell>
      </root>
    </mxGraphModel>
  </diagram>
</mxfile>
